<mxfile host="Electron" agent="Mozilla/5.0 (Windows NT 10.0; Win64; x64) AppleWebKit/537.36 (KHTML, like Gecko) draw.io/26.0.16 Chrome/132.0.6834.196 Electron/34.2.0 Safari/537.36" version="26.0.16" pages="2">
  <diagram name="Page-1" id="i-Jr3PjUj6tLASvhH4dH">
    <mxGraphModel dx="1714" dy="516" grid="1" gridSize="10" guides="1" tooltips="1" connect="1" arrows="1" fold="1" page="1" pageScale="1" pageWidth="850" pageHeight="1100" math="0" shadow="0">
      <root>
        <mxCell id="0" />
        <mxCell id="1" parent="0" />
        <mxCell id="fUXaf3c8tL8dAXFwkJp--4" value="" style="rounded=0;whiteSpace=wrap;html=1;direction=south;" parent="1" vertex="1">
          <mxGeometry x="170" y="320" width="60" height="120" as="geometry" />
        </mxCell>
        <mxCell id="fUXaf3c8tL8dAXFwkJp--5" value="" style="endArrow=classic;html=1;rounded=0;" parent="1" edge="1">
          <mxGeometry width="50" height="50" relative="1" as="geometry">
            <mxPoint y="340" as="sourcePoint" />
            <mxPoint x="170" y="340" as="targetPoint" />
          </mxGeometry>
        </mxCell>
        <mxCell id="fUXaf3c8tL8dAXFwkJp--6" value="" style="rounded=0;whiteSpace=wrap;html=1;direction=south;" parent="1" vertex="1">
          <mxGeometry x="170" y="510" width="60" height="120" as="geometry" />
        </mxCell>
        <mxCell id="fUXaf3c8tL8dAXFwkJp--7" value="" style="endArrow=classic;html=1;rounded=0;" parent="1" edge="1">
          <mxGeometry width="50" height="50" relative="1" as="geometry">
            <mxPoint y="530" as="sourcePoint" />
            <mxPoint x="170" y="530" as="targetPoint" />
          </mxGeometry>
        </mxCell>
        <mxCell id="fUXaf3c8tL8dAXFwkJp--10" value="UART_CTL" style="text;html=1;align=center;verticalAlign=middle;whiteSpace=wrap;rounded=0;" parent="1" vertex="1">
          <mxGeometry x="170" y="440" width="60" height="30" as="geometry" />
        </mxCell>
        <mxCell id="fUXaf3c8tL8dAXFwkJp--11" value="baud_rate" style="text;html=1;align=center;verticalAlign=middle;whiteSpace=wrap;rounded=0;" parent="1" vertex="1">
          <mxGeometry x="170" y="630" width="60" height="30" as="geometry" />
        </mxCell>
        <mxCell id="fUXaf3c8tL8dAXFwkJp--14" value="" style="group" parent="1" vertex="1" connectable="0">
          <mxGeometry x="120" y="130" width="230" height="150" as="geometry" />
        </mxCell>
        <mxCell id="fUXaf3c8tL8dAXFwkJp--13" value="FIFO" style="text;html=1;align=center;verticalAlign=middle;whiteSpace=wrap;rounded=0;container=0;" parent="fUXaf3c8tL8dAXFwkJp--14" vertex="1">
          <mxGeometry x="170" y="120" width="60" height="30" as="geometry" />
        </mxCell>
        <mxCell id="fUXaf3c8tL8dAXFwkJp--2" value="" style="rounded=0;whiteSpace=wrap;html=1;direction=south;container=0;" parent="fUXaf3c8tL8dAXFwkJp--14" vertex="1">
          <mxGeometry x="170" width="60" height="120" as="geometry" />
        </mxCell>
        <mxCell id="fUXaf3c8tL8dAXFwkJp--3" value="" style="endArrow=classic;html=1;rounded=0;" parent="fUXaf3c8tL8dAXFwkJp--14" edge="1">
          <mxGeometry width="50" height="50" relative="1" as="geometry">
            <mxPoint y="20" as="sourcePoint" />
            <mxPoint x="170" y="20" as="targetPoint" />
          </mxGeometry>
        </mxCell>
        <mxCell id="fUXaf3c8tL8dAXFwkJp--26" value="" style="endArrow=classic;html=1;rounded=0;strokeColor=light-dark(#f20707, #ededed);strokeWidth=3;" parent="fUXaf3c8tL8dAXFwkJp--14" edge="1">
          <mxGeometry width="50" height="50" relative="1" as="geometry">
            <mxPoint x="20" y="20" as="sourcePoint" />
            <mxPoint x="20" y="90" as="targetPoint" />
          </mxGeometry>
        </mxCell>
        <mxCell id="fUXaf3c8tL8dAXFwkJp--29" value="&lt;span style=&quot;color: rgb(0, 0, 0); font-family: Helvetica; font-size: 12px; font-style: normal; font-variant-ligatures: normal; font-variant-caps: normal; font-weight: 400; letter-spacing: normal; orphans: 2; text-align: center; text-indent: 0px; text-transform: none; widows: 2; word-spacing: 0px; -webkit-text-stroke-width: 0px; white-space: nowrap; background-color: rgb(251, 251, 251); text-decoration-thickness: initial; text-decoration-style: initial; text-decoration-color: initial; display: inline !important; float: none;&quot;&gt;data_In&lt;/span&gt;" style="text;whiteSpace=wrap;html=1;rotation=90;" parent="fUXaf3c8tL8dAXFwkJp--14" vertex="1">
          <mxGeometry y="45" width="70" height="30" as="geometry" />
        </mxCell>
        <mxCell id="fUXaf3c8tL8dAXFwkJp--59" value="" style="shape=or;whiteSpace=wrap;html=1;direction=north;" parent="fUXaf3c8tL8dAXFwkJp--14" vertex="1">
          <mxGeometry x="40" y="95" width="50" height="30" as="geometry" />
        </mxCell>
        <mxCell id="fUXaf3c8tL8dAXFwkJp--60" value="" style="endArrow=classic;html=1;rounded=0;exitX=0.625;exitY=-0.017;exitDx=0;exitDy=0;exitPerimeter=0;entryX=0.5;entryY=1;entryDx=0;entryDy=0;" parent="fUXaf3c8tL8dAXFwkJp--14" source="fUXaf3c8tL8dAXFwkJp--2" target="fUXaf3c8tL8dAXFwkJp--63" edge="1">
          <mxGeometry width="50" height="50" relative="1" as="geometry">
            <mxPoint x="170" y="250" as="sourcePoint" />
            <mxPoint x="148" y="150" as="targetPoint" />
            <Array as="points">
              <mxPoint x="250" y="75" />
              <mxPoint x="250" y="160" />
              <mxPoint x="75" y="160" />
            </Array>
          </mxGeometry>
        </mxCell>
        <mxCell id="fUXaf3c8tL8dAXFwkJp--63" value="" style="ellipse;whiteSpace=wrap;html=1;" parent="fUXaf3c8tL8dAXFwkJp--14" vertex="1">
          <mxGeometry x="70" y="125" width="10" height="10" as="geometry" />
        </mxCell>
        <mxCell id="fUXaf3c8tL8dAXFwkJp--65" value="" style="endArrow=classic;html=1;rounded=0;exitX=1;exitY=0.5;exitDx=0;exitDy=0;exitPerimeter=0;" parent="fUXaf3c8tL8dAXFwkJp--14" source="fUXaf3c8tL8dAXFwkJp--59" edge="1">
          <mxGeometry width="50" height="50" relative="1" as="geometry">
            <mxPoint x="160" y="300" as="sourcePoint" />
            <mxPoint x="168" y="40" as="targetPoint" />
            <Array as="points">
              <mxPoint x="65" y="40" />
            </Array>
          </mxGeometry>
        </mxCell>
        <mxCell id="Ki-iK-O01lwPalJUnk5m-7" value="" style="triangle;whiteSpace=wrap;html=1;" parent="fUXaf3c8tL8dAXFwkJp--14" vertex="1">
          <mxGeometry x="170" y="100" width="10" height="20" as="geometry" />
        </mxCell>
        <mxCell id="Ki-iK-O01lwPalJUnk5m-100" value="" style="endArrow=classic;html=1;rounded=0;strokeColor=light-dark(#983434, #ededed);strokeWidth=3;" parent="fUXaf3c8tL8dAXFwkJp--14" edge="1">
          <mxGeometry width="50" height="50" relative="1" as="geometry">
            <mxPoint x="90" y="70" as="sourcePoint" />
            <mxPoint x="170" y="70" as="targetPoint" />
          </mxGeometry>
        </mxCell>
        <mxCell id="Ki-iK-O01lwPalJUnk5m-102" value="fifo_enable" style="text;html=1;align=center;verticalAlign=middle;whiteSpace=wrap;rounded=0;" parent="fUXaf3c8tL8dAXFwkJp--14" vertex="1">
          <mxGeometry x="90" y="45" width="60" height="30" as="geometry" />
        </mxCell>
        <mxCell id="fUXaf3c8tL8dAXFwkJp--21" value="" style="group" parent="1" vertex="1" connectable="0">
          <mxGeometry x="470" y="130" width="230" height="150" as="geometry" />
        </mxCell>
        <mxCell id="fUXaf3c8tL8dAXFwkJp--17" value="&lt;span style=&quot;color: rgba(0, 0, 0, 0); font-family: monospace; font-size: 0px; text-align: start; text-wrap-mode: nowrap;&quot;&gt;%3CmxGraphModel%3E%3Croot%3E%3CmxCell%20id%3D%220%22%2F%3E%3CmxCell%20id%3D%221%22%20parent%3D%220%22%2F%3E%3CmxCell%20id%3D%222%22%20value%3D%22Data%20register%22%20style%3D%22text%3Bhtml%3D1%3Balign%3Dcenter%3BverticalAlign%3Dmiddle%3BwhiteSpace%3Dwrap%3Brounded%3D0%3B%22%20vertex%3D%221%22%20parent%3D%221%22%3E%3CmxGeometry%20x%3D%22275%22%20y%3D%22200%22%20width%3D%2260%22%20height%3D%2230%22%20as%3D%22geometry%22%2F%3E%3C%2FmxCell%3E%3C%2Froot%3E%3C%2FmxGraphModel%3E&lt;/span&gt;&lt;span style=&quot;color: rgba(0, 0, 0, 0); font-family: monospace; font-size: 0px; text-align: start; text-wrap-mode: nowrap;&quot;&gt;%3CmxGraphModel%3E%3Croot%3E%3CmxCell%20id%3D%220%22%2F%3E%3CmxCell%20id%3D%221%22%20parent%3D%220%22%2F%3E%3CmxCell%20id%3D%222%22%20value%3D%22Data%20register%22%20style%3D%22text%3Bhtml%3D1%3Balign%3Dcenter%3BverticalAlign%3Dmiddle%3BwhiteSpace%3Dwrap%3Brounded%3D0%3B%22%20vertex%3D%221%22%20parent%3D%221%22%3E%3CmxGeometry%20x%3D%22275%22%20y%3D%22200%22%20width%3D%2260%22%20height%3D%2230%22%20as%3D%22geometry%22%2F%3E%3C%2FmxCell%3E%3C%2Froot%3E%3C%2FmxGraphModel%3E&lt;/span&gt;" style="text;html=1;align=center;verticalAlign=middle;whiteSpace=wrap;rounded=0;container=0;" parent="fUXaf3c8tL8dAXFwkJp--21" vertex="1">
          <mxGeometry x="170" y="120" width="60" height="30" as="geometry" />
        </mxCell>
        <mxCell id="fUXaf3c8tL8dAXFwkJp--18" value="" style="rounded=0;whiteSpace=wrap;html=1;direction=south;container=0;" parent="fUXaf3c8tL8dAXFwkJp--21" vertex="1">
          <mxGeometry x="170" width="60" height="120" as="geometry" />
        </mxCell>
        <mxCell id="fUXaf3c8tL8dAXFwkJp--19" value="" style="endArrow=classic;html=1;rounded=0;exitX=0.167;exitY=0;exitDx=0;exitDy=0;exitPerimeter=0;" parent="fUXaf3c8tL8dAXFwkJp--21" source="fUXaf3c8tL8dAXFwkJp--2" edge="1">
          <mxGeometry width="50" height="50" relative="1" as="geometry">
            <mxPoint y="20" as="sourcePoint" />
            <mxPoint x="170" y="20" as="targetPoint" />
            <Array as="points">
              <mxPoint x="50" y="20" />
            </Array>
          </mxGeometry>
        </mxCell>
        <mxCell id="fUXaf3c8tL8dAXFwkJp--20" value="Data register" style="text;html=1;align=center;verticalAlign=middle;whiteSpace=wrap;rounded=0;container=0;" parent="fUXaf3c8tL8dAXFwkJp--21" vertex="1">
          <mxGeometry x="170" y="120" width="60" height="30" as="geometry" />
        </mxCell>
        <mxCell id="Ki-iK-O01lwPalJUnk5m-6" value="" style="triangle;whiteSpace=wrap;html=1;" parent="fUXaf3c8tL8dAXFwkJp--21" vertex="1">
          <mxGeometry x="170" y="100" width="10" height="20" as="geometry" />
        </mxCell>
        <mxCell id="Ki-iK-O01lwPalJUnk5m-72" value="" style="endArrow=classic;html=1;rounded=0;strokeColor=light-dark(#06f92f, #ededed);strokeWidth=3;" parent="fUXaf3c8tL8dAXFwkJp--21" edge="1">
          <mxGeometry width="50" height="50" relative="1" as="geometry">
            <mxPoint x="90" y="95" as="sourcePoint" />
            <mxPoint x="170" y="55" as="targetPoint" />
            <Array as="points">
              <mxPoint x="90" y="55" />
            </Array>
          </mxGeometry>
        </mxCell>
        <mxCell id="Ki-iK-O01lwPalJUnk5m-73" value="data_reg_enable" style="text;html=1;align=center;verticalAlign=middle;whiteSpace=wrap;rounded=0;" parent="fUXaf3c8tL8dAXFwkJp--21" vertex="1">
          <mxGeometry x="85" y="30" width="60" height="30" as="geometry" />
        </mxCell>
        <mxCell id="fUXaf3c8tL8dAXFwkJp--23" value="" style="endArrow=none;html=1;rounded=0;entryX=0.567;entryY=0.967;entryDx=0;entryDy=0;entryPerimeter=0;" parent="1" target="fUXaf3c8tL8dAXFwkJp--24" edge="1">
          <mxGeometry width="50" height="50" relative="1" as="geometry">
            <mxPoint x="380" y="160" as="sourcePoint" />
            <mxPoint x="410" y="130" as="targetPoint" />
          </mxGeometry>
        </mxCell>
        <mxCell id="fUXaf3c8tL8dAXFwkJp--24" value="8" style="text;html=1;align=center;verticalAlign=middle;resizable=0;points=[];autosize=1;strokeColor=none;fillColor=none;" parent="1" vertex="1">
          <mxGeometry x="385" y="110" width="30" height="30" as="geometry" />
        </mxCell>
        <UserObject label="&lt;b&gt;&lt;font style=&quot;font-size: 17px;&quot;&gt;controller&lt;/font&gt;&lt;/b&gt;" link="data:page/id,hqcacZaWT376cXRWCEjd" id="fUXaf3c8tL8dAXFwkJp--25">
          <mxCell style="rounded=0;whiteSpace=wrap;html=1;" parent="1" vertex="1">
            <mxGeometry x="60" y="760" width="1030" height="60" as="geometry" />
          </mxCell>
        </UserObject>
        <mxCell id="fUXaf3c8tL8dAXFwkJp--27" value="" style="endArrow=classic;html=1;rounded=0;strokeColor=light-dark(#f20707, #ededed);strokeWidth=3;" parent="1" edge="1">
          <mxGeometry width="50" height="50" relative="1" as="geometry">
            <mxPoint x="120" y="690" as="sourcePoint" />
            <mxPoint x="120" y="760" as="targetPoint" />
          </mxGeometry>
        </mxCell>
        <mxCell id="fUXaf3c8tL8dAXFwkJp--28" value="data_In" style="text;html=1;align=center;verticalAlign=middle;resizable=0;points=[];autosize=1;strokeColor=none;fillColor=none;rotation=90;" parent="1" vertex="1">
          <mxGeometry x="100" y="698" width="60" height="30" as="geometry" />
        </mxCell>
        <mxCell id="fUXaf3c8tL8dAXFwkJp--45" value="" style="group" parent="1" vertex="1" connectable="0">
          <mxGeometry x="630" y="490" width="130" height="150" as="geometry" />
        </mxCell>
        <mxCell id="fUXaf3c8tL8dAXFwkJp--46" value="bit_count" style="rounded=0;whiteSpace=wrap;html=1;direction=south;" parent="fUXaf3c8tL8dAXFwkJp--45" vertex="1">
          <mxGeometry x="40" y="20" width="50" height="130" as="geometry" />
        </mxCell>
        <mxCell id="fUXaf3c8tL8dAXFwkJp--47" value="" style="triangle;whiteSpace=wrap;html=1;" parent="fUXaf3c8tL8dAXFwkJp--45" vertex="1">
          <mxGeometry x="40" y="130" width="10" height="20" as="geometry" />
        </mxCell>
        <mxCell id="fUXaf3c8tL8dAXFwkJp--48" value="" style="group" parent="fUXaf3c8tL8dAXFwkJp--45" vertex="1" connectable="0">
          <mxGeometry x="90" y="30" width="40" height="30" as="geometry" />
        </mxCell>
        <mxCell id="fUXaf3c8tL8dAXFwkJp--49" value="" style="endArrow=classic;html=1;rounded=0;strokeWidth=1;startSize=6;opacity=70;jumpSize=1;strokeColor=default;shadow=1;entryX=0;entryY=0.5;entryDx=0;entryDy=0;" parent="fUXaf3c8tL8dAXFwkJp--48" target="fUXaf3c8tL8dAXFwkJp--50" edge="1">
          <mxGeometry width="50" height="50" relative="1" as="geometry">
            <mxPoint y="14" as="sourcePoint" />
            <mxPoint x="20" y="14" as="targetPoint" />
          </mxGeometry>
        </mxCell>
        <mxCell id="fUXaf3c8tL8dAXFwkJp--50" value="" style="ellipse;whiteSpace=wrap;html=1;" parent="fUXaf3c8tL8dAXFwkJp--48" vertex="1">
          <mxGeometry x="24" width="16" height="30" as="geometry" />
        </mxCell>
        <mxCell id="fUXaf3c8tL8dAXFwkJp--51" value="=" style="text;html=1;align=center;verticalAlign=middle;whiteSpace=wrap;rounded=0;" parent="fUXaf3c8tL8dAXFwkJp--48" vertex="1">
          <mxGeometry x="26" y="10" width="14" height="10" as="geometry" />
        </mxCell>
        <mxCell id="fUXaf3c8tL8dAXFwkJp--52" value="" style="endArrow=classic;html=1;rounded=0;strokeWidth=1;startSize=6;opacity=70;jumpSize=1;strokeColor=default;shadow=1;exitX=0.5;exitY=0;exitDx=0;exitDy=0;" parent="fUXaf3c8tL8dAXFwkJp--45" source="fUXaf3c8tL8dAXFwkJp--50" target="fUXaf3c8tL8dAXFwkJp--53" edge="1">
          <mxGeometry width="50" height="50" relative="1" as="geometry">
            <mxPoint x="155" y="20" as="sourcePoint" />
            <mxPoint y="40" as="targetPoint" />
            <Array as="points">
              <mxPoint x="122" />
              <mxPoint x="10" />
            </Array>
          </mxGeometry>
        </mxCell>
        <mxCell id="fUXaf3c8tL8dAXFwkJp--53" value="" style="ellipse;whiteSpace=wrap;html=1;" parent="fUXaf3c8tL8dAXFwkJp--45" vertex="1">
          <mxGeometry y="30" width="20" height="20" as="geometry" />
        </mxCell>
        <mxCell id="fUXaf3c8tL8dAXFwkJp--54" value="+" style="text;html=1;align=center;verticalAlign=middle;whiteSpace=wrap;rounded=0;" parent="fUXaf3c8tL8dAXFwkJp--45" vertex="1">
          <mxGeometry x="5" y="32.5" width="10" height="15" as="geometry" />
        </mxCell>
        <mxCell id="fUXaf3c8tL8dAXFwkJp--55" value="" style="endArrow=classic;html=1;rounded=0;strokeWidth=1;startSize=6;opacity=70;jumpSize=1;strokeColor=default;shadow=1;entryX=0.5;entryY=1;entryDx=0;entryDy=0;" parent="fUXaf3c8tL8dAXFwkJp--45" target="fUXaf3c8tL8dAXFwkJp--53" edge="1">
          <mxGeometry width="50" height="50" relative="1" as="geometry">
            <mxPoint x="10" y="70" as="sourcePoint" />
            <mxPoint x="-10" y="10" as="targetPoint" />
          </mxGeometry>
        </mxCell>
        <mxCell id="fUXaf3c8tL8dAXFwkJp--56" value="1" style="text;html=1;align=center;verticalAlign=middle;whiteSpace=wrap;rounded=0;" parent="fUXaf3c8tL8dAXFwkJp--45" vertex="1">
          <mxGeometry y="75" width="20" height="10" as="geometry" />
        </mxCell>
        <mxCell id="fUXaf3c8tL8dAXFwkJp--57" value="" style="endArrow=classic;html=1;rounded=0;strokeWidth=1;startSize=6;opacity=70;jumpSize=1;strokeColor=default;shadow=1;" parent="fUXaf3c8tL8dAXFwkJp--45" edge="1">
          <mxGeometry width="50" height="50" relative="1" as="geometry">
            <mxPoint x="20" y="39.5" as="sourcePoint" />
            <mxPoint x="40" y="40" as="targetPoint" />
          </mxGeometry>
        </mxCell>
        <mxCell id="fUXaf3c8tL8dAXFwkJp--58" value="" style="endArrow=classic;html=1;rounded=0;strokeWidth=1;startSize=6;opacity=70;jumpSize=1;strokeColor=default;shadow=1;entryX=0.5;entryY=1;entryDx=0;entryDy=0;exitX=0.577;exitY=-0.08;exitDx=0;exitDy=0;exitPerimeter=0;" parent="fUXaf3c8tL8dAXFwkJp--45" source="fUXaf3c8tL8dAXFwkJp--46" target="fUXaf3c8tL8dAXFwkJp--50" edge="1">
          <mxGeometry width="50" height="50" relative="1" as="geometry">
            <mxPoint x="100" y="90" as="sourcePoint" />
            <mxPoint x="-40" y="95" as="targetPoint" />
            <Array as="points">
              <mxPoint x="120" y="95" />
            </Array>
          </mxGeometry>
        </mxCell>
        <mxCell id="fUXaf3c8tL8dAXFwkJp--61" value="" style="endArrow=classic;html=1;rounded=0;exitX=1;exitY=0.5;exitDx=0;exitDy=0;entryX=0;entryY=0.25;entryDx=0;entryDy=0;entryPerimeter=0;" parent="1" source="fUXaf3c8tL8dAXFwkJp--37" target="fUXaf3c8tL8dAXFwkJp--59" edge="1">
          <mxGeometry width="50" height="50" relative="1" as="geometry">
            <mxPoint x="450" y="560" as="sourcePoint" />
            <mxPoint x="240" y="270" as="targetPoint" />
            <Array as="points">
              <mxPoint x="440" y="555" />
              <mxPoint x="440" y="300" />
              <mxPoint x="173" y="300" />
            </Array>
          </mxGeometry>
        </mxCell>
        <mxCell id="fUXaf3c8tL8dAXFwkJp--62" value="" style="group" parent="1" vertex="1" connectable="0">
          <mxGeometry x="295" y="510" width="130" height="140" as="geometry" />
        </mxCell>
        <mxCell id="fUXaf3c8tL8dAXFwkJp--32" value="baud_reg" style="rounded=0;whiteSpace=wrap;html=1;direction=south;container=0;" parent="fUXaf3c8tL8dAXFwkJp--62" vertex="1">
          <mxGeometry x="40" y="20" width="50" height="120" as="geometry" />
        </mxCell>
        <mxCell id="fUXaf3c8tL8dAXFwkJp--33" value="" style="triangle;whiteSpace=wrap;html=1;container=0;" parent="fUXaf3c8tL8dAXFwkJp--62" vertex="1">
          <mxGeometry x="40" y="120" width="10" height="20" as="geometry" />
        </mxCell>
        <mxCell id="fUXaf3c8tL8dAXFwkJp--38" value="" style="endArrow=classic;html=1;rounded=0;strokeWidth=1;startSize=6;opacity=70;jumpSize=1;strokeColor=default;shadow=1;exitX=0.5;exitY=0;exitDx=0;exitDy=0;" parent="fUXaf3c8tL8dAXFwkJp--62" source="fUXaf3c8tL8dAXFwkJp--36" target="fUXaf3c8tL8dAXFwkJp--39" edge="1">
          <mxGeometry width="50" height="50" relative="1" as="geometry">
            <mxPoint x="155" y="20" as="sourcePoint" />
            <mxPoint y="40" as="targetPoint" />
            <Array as="points">
              <mxPoint x="122" />
              <mxPoint x="10" />
            </Array>
          </mxGeometry>
        </mxCell>
        <mxCell id="fUXaf3c8tL8dAXFwkJp--39" value="" style="ellipse;whiteSpace=wrap;html=1;container=0;" parent="fUXaf3c8tL8dAXFwkJp--62" vertex="1">
          <mxGeometry y="30" width="20" height="20" as="geometry" />
        </mxCell>
        <mxCell id="fUXaf3c8tL8dAXFwkJp--40" value="+" style="text;html=1;align=center;verticalAlign=middle;whiteSpace=wrap;rounded=0;container=0;" parent="fUXaf3c8tL8dAXFwkJp--62" vertex="1">
          <mxGeometry x="5" y="32.5" width="10" height="15" as="geometry" />
        </mxCell>
        <mxCell id="fUXaf3c8tL8dAXFwkJp--41" value="" style="endArrow=classic;html=1;rounded=0;strokeWidth=1;startSize=6;opacity=70;jumpSize=1;strokeColor=default;shadow=1;entryX=0.5;entryY=1;entryDx=0;entryDy=0;" parent="fUXaf3c8tL8dAXFwkJp--62" target="fUXaf3c8tL8dAXFwkJp--39" edge="1">
          <mxGeometry width="50" height="50" relative="1" as="geometry">
            <mxPoint x="10" y="70" as="sourcePoint" />
            <mxPoint x="-10" y="10" as="targetPoint" />
          </mxGeometry>
        </mxCell>
        <mxCell id="fUXaf3c8tL8dAXFwkJp--42" value="1" style="text;html=1;align=center;verticalAlign=middle;whiteSpace=wrap;rounded=0;container=0;" parent="fUXaf3c8tL8dAXFwkJp--62" vertex="1">
          <mxGeometry y="75" width="20" height="10" as="geometry" />
        </mxCell>
        <mxCell id="fUXaf3c8tL8dAXFwkJp--43" value="" style="endArrow=classic;html=1;rounded=0;strokeWidth=1;startSize=6;opacity=70;jumpSize=1;strokeColor=default;shadow=1;" parent="fUXaf3c8tL8dAXFwkJp--62" edge="1">
          <mxGeometry width="50" height="50" relative="1" as="geometry">
            <mxPoint x="20" y="39.5" as="sourcePoint" />
            <mxPoint x="40" y="40" as="targetPoint" />
          </mxGeometry>
        </mxCell>
        <mxCell id="fUXaf3c8tL8dAXFwkJp--44" value="" style="endArrow=classic;html=1;rounded=0;strokeWidth=1;startSize=6;opacity=70;jumpSize=1;strokeColor=default;shadow=1;entryX=0.5;entryY=1;entryDx=0;entryDy=0;exitX=0.75;exitY=0;exitDx=0;exitDy=0;" parent="fUXaf3c8tL8dAXFwkJp--62" source="fUXaf3c8tL8dAXFwkJp--32" target="fUXaf3c8tL8dAXFwkJp--36" edge="1">
          <mxGeometry width="50" height="50" relative="1" as="geometry">
            <mxPoint x="100" y="90" as="sourcePoint" />
            <mxPoint x="-40" y="95" as="targetPoint" />
            <Array as="points">
              <mxPoint x="122" y="110" />
            </Array>
          </mxGeometry>
        </mxCell>
        <mxCell id="fUXaf3c8tL8dAXFwkJp--35" value="" style="endArrow=classic;html=1;rounded=0;strokeWidth=1;startSize=6;opacity=70;jumpSize=1;strokeColor=default;shadow=1;entryX=0;entryY=0.5;entryDx=0;entryDy=0;" parent="fUXaf3c8tL8dAXFwkJp--62" target="fUXaf3c8tL8dAXFwkJp--36" edge="1">
          <mxGeometry width="50" height="50" relative="1" as="geometry">
            <mxPoint x="90" y="44" as="sourcePoint" />
            <mxPoint x="110" y="44" as="targetPoint" />
          </mxGeometry>
        </mxCell>
        <mxCell id="fUXaf3c8tL8dAXFwkJp--36" value="" style="ellipse;whiteSpace=wrap;html=1;container=0;" parent="fUXaf3c8tL8dAXFwkJp--62" vertex="1">
          <mxGeometry x="114" y="30" width="16" height="30" as="geometry" />
        </mxCell>
        <mxCell id="fUXaf3c8tL8dAXFwkJp--37" value="=" style="text;html=1;align=center;verticalAlign=middle;whiteSpace=wrap;rounded=0;container=0;" parent="fUXaf3c8tL8dAXFwkJp--62" vertex="1">
          <mxGeometry x="116" y="40" width="14" height="10" as="geometry" />
        </mxCell>
        <mxCell id="Ki-iK-O01lwPalJUnk5m-94" value="" style="endArrow=classic;html=1;rounded=0;strokeColor=light-dark(#316d3d, #ededed);strokeWidth=3;entryX=0.75;entryY=1;entryDx=0;entryDy=0;" parent="fUXaf3c8tL8dAXFwkJp--62" target="fUXaf3c8tL8dAXFwkJp--32" edge="1">
          <mxGeometry width="50" height="50" relative="1" as="geometry">
            <mxPoint x="-45" y="110" as="sourcePoint" />
            <mxPoint x="35" y="110" as="targetPoint" />
          </mxGeometry>
        </mxCell>
        <mxCell id="fUXaf3c8tL8dAXFwkJp--66" value="" style="endArrow=classic;html=1;rounded=0;entryX=0.567;entryY=0.96;entryDx=0;entryDy=0;entryPerimeter=0;" parent="1" target="fUXaf3c8tL8dAXFwkJp--32" edge="1">
          <mxGeometry width="50" height="50" relative="1" as="geometry">
            <mxPoint x="231" y="598" as="sourcePoint" />
            <mxPoint x="340" y="370" as="targetPoint" />
          </mxGeometry>
        </mxCell>
        <mxCell id="Ki-iK-O01lwPalJUnk5m-1" value="" style="rounded=0;whiteSpace=wrap;html=1;direction=south;container=0;" parent="1" vertex="1">
          <mxGeometry x="640" y="300" width="60" height="120" as="geometry" />
        </mxCell>
        <mxCell id="Ki-iK-O01lwPalJUnk5m-2" value=" UART-STATUS" style="text;align=center;verticalAlign=middle;rounded=0;whiteSpace=wrap;" parent="1" vertex="1">
          <mxGeometry x="640" y="420" width="60" height="30" as="geometry" />
        </mxCell>
        <mxCell id="Ki-iK-O01lwPalJUnk5m-3" value="" style="endArrow=classic;html=1;rounded=0;exitX=0.9;exitY=0.017;exitDx=0;exitDy=0;exitPerimeter=0;" parent="1" source="fUXaf3c8tL8dAXFwkJp--4" edge="1">
          <mxGeometry width="50" height="50" relative="1" as="geometry">
            <mxPoint x="500" y="400" as="sourcePoint" />
            <mxPoint x="670" y="580" as="targetPoint" />
            <Array as="points">
              <mxPoint x="480" y="430" />
              <mxPoint x="480" y="580" />
            </Array>
          </mxGeometry>
        </mxCell>
        <mxCell id="Ki-iK-O01lwPalJUnk5m-4" value="no of bits" style="text;html=1;align=center;verticalAlign=middle;whiteSpace=wrap;rounded=0;" parent="1" vertex="1">
          <mxGeometry x="230" y="400" width="60" height="30" as="geometry" />
        </mxCell>
        <mxCell id="Ki-iK-O01lwPalJUnk5m-5" value="" style="triangle;whiteSpace=wrap;html=1;" parent="1" vertex="1">
          <mxGeometry x="640" y="400" width="10" height="20" as="geometry" />
        </mxCell>
        <mxCell id="Ki-iK-O01lwPalJUnk5m-8" value="" style="triangle;whiteSpace=wrap;html=1;" parent="1" vertex="1">
          <mxGeometry x="170" y="610" width="10" height="20" as="geometry" />
        </mxCell>
        <mxCell id="Ki-iK-O01lwPalJUnk5m-9" value="" style="triangle;whiteSpace=wrap;html=1;" parent="1" vertex="1">
          <mxGeometry x="170" y="420" width="10" height="20" as="geometry" />
        </mxCell>
        <mxCell id="Ki-iK-O01lwPalJUnk5m-10" value="" style="endArrow=classic;html=1;rounded=0;strokeColor=light-dark(#0905ff, #ededed);strokeWidth=3;exitX=0.583;exitY=-0.05;exitDx=0;exitDy=0;exitPerimeter=0;" parent="1" source="fUXaf3c8tL8dAXFwkJp--4" edge="1">
          <mxGeometry width="50" height="50" relative="1" as="geometry">
            <mxPoint x="530" y="360" as="sourcePoint" />
            <mxPoint x="300" y="460" as="targetPoint" />
            <Array as="points">
              <mxPoint x="300" y="390" />
            </Array>
          </mxGeometry>
        </mxCell>
        <mxCell id="Ki-iK-O01lwPalJUnk5m-12" value="parity_enable" style="text;html=1;align=center;verticalAlign=middle;whiteSpace=wrap;rounded=0;" parent="1" vertex="1">
          <mxGeometry x="240" y="365" width="60" height="30" as="geometry" />
        </mxCell>
        <mxCell id="Ki-iK-O01lwPalJUnk5m-13" value="" style="endArrow=classic;html=1;rounded=0;strokeColor=light-dark(#0905ff, #ededed);strokeWidth=3;entryX=0.119;entryY=-0.067;entryDx=0;entryDy=0;entryPerimeter=0;" parent="1" edge="1">
          <mxGeometry width="50" height="50" relative="1" as="geometry">
            <mxPoint x="199.93" y="680" as="sourcePoint" />
            <mxPoint x="199.49999999999994" y="760" as="targetPoint" />
            <Array as="points">
              <mxPoint x="199.93" y="680" />
            </Array>
          </mxGeometry>
        </mxCell>
        <mxCell id="Ki-iK-O01lwPalJUnk5m-14" value="parity_enable" style="text;html=1;align=center;verticalAlign=middle;whiteSpace=wrap;rounded=0;rotation=90;" parent="1" vertex="1">
          <mxGeometry x="180" y="698" width="60" height="30" as="geometry" />
        </mxCell>
        <mxCell id="Ki-iK-O01lwPalJUnk5m-15" value="" style="endArrow=classic;html=1;rounded=0;strokeColor=light-dark(#fa05d9, #ededed);strokeWidth=3;" parent="1" edge="1">
          <mxGeometry width="50" height="50" relative="1" as="geometry">
            <mxPoint x="440" y="550" as="sourcePoint" />
            <mxPoint x="440" y="620" as="targetPoint" />
          </mxGeometry>
        </mxCell>
        <mxCell id="Ki-iK-O01lwPalJUnk5m-17" value="" style="endArrow=classic;html=1;rounded=0;strokeColor=light-dark(#fa05d9, #ededed);strokeWidth=3;" parent="1" edge="1">
          <mxGeometry width="50" height="50" relative="1" as="geometry">
            <mxPoint x="440" y="690" as="sourcePoint" />
            <mxPoint x="440" y="760" as="targetPoint" />
          </mxGeometry>
        </mxCell>
        <mxCell id="Ki-iK-O01lwPalJUnk5m-19" value="baud_rate" style="text;html=1;align=center;verticalAlign=middle;whiteSpace=wrap;rounded=0;rotation=90;" parent="1" vertex="1">
          <mxGeometry x="430" y="698" width="60" height="30" as="geometry" />
        </mxCell>
        <mxCell id="Ki-iK-O01lwPalJUnk5m-44" value="" style="group" parent="1" vertex="1" connectable="0">
          <mxGeometry x="410" y="230" width="130" height="100" as="geometry" />
        </mxCell>
        <mxCell id="Ki-iK-O01lwPalJUnk5m-45" value="" style="shape=xor;whiteSpace=wrap;html=1;" parent="Ki-iK-O01lwPalJUnk5m-44" vertex="1">
          <mxGeometry x="10" y="10" width="40" height="50" as="geometry" />
        </mxCell>
        <mxCell id="Ki-iK-O01lwPalJUnk5m-46" value="" style="endArrow=none;html=1;rounded=0;curved=1;" parent="Ki-iK-O01lwPalJUnk5m-44" edge="1">
          <mxGeometry width="50" height="50" relative="1" as="geometry">
            <mxPoint y="55" as="sourcePoint" />
            <mxPoint y="15" as="targetPoint" />
            <Array as="points">
              <mxPoint x="30" y="35" />
            </Array>
          </mxGeometry>
        </mxCell>
        <mxCell id="Ki-iK-O01lwPalJUnk5m-47" value="" style="endArrow=classic;html=1;rounded=0;strokeWidth=1;startSize=6;opacity=70;jumpSize=1;strokeColor=default;shadow=1;entryX=0.25;entryY=1;entryDx=0;entryDy=0;" parent="Ki-iK-O01lwPalJUnk5m-44" target="Ki-iK-O01lwPalJUnk5m-51" edge="1">
          <mxGeometry width="50" height="50" relative="1" as="geometry">
            <mxPoint x="50" y="34.5" as="sourcePoint" />
            <mxPoint x="107" y="20" as="targetPoint" />
            <Array as="points">
              <mxPoint x="60" y="35" />
              <mxPoint x="60" y="25" />
            </Array>
          </mxGeometry>
        </mxCell>
        <mxCell id="Ki-iK-O01lwPalJUnk5m-48" value="" style="endArrow=classic;html=1;rounded=0;strokeWidth=1;startSize=6;opacity=70;jumpSize=1;strokeColor=default;shadow=1;entryX=0;entryY=0.5;entryDx=0;entryDy=0;" parent="Ki-iK-O01lwPalJUnk5m-44" target="Ki-iK-O01lwPalJUnk5m-54" edge="1">
          <mxGeometry width="50" height="50" relative="1" as="geometry">
            <mxPoint x="60" y="30" as="sourcePoint" />
            <mxPoint x="90" y="70" as="targetPoint" />
            <Array as="points">
              <mxPoint x="60" y="65" />
            </Array>
          </mxGeometry>
        </mxCell>
        <mxCell id="Ki-iK-O01lwPalJUnk5m-49" value="" style="group" parent="Ki-iK-O01lwPalJUnk5m-44" vertex="1" connectable="0">
          <mxGeometry x="100" width="30" height="100" as="geometry" />
        </mxCell>
        <mxCell id="Ki-iK-O01lwPalJUnk5m-50" value="" style="group" parent="Ki-iK-O01lwPalJUnk5m-49" vertex="1" connectable="0">
          <mxGeometry x="10" width="20" height="100" as="geometry" />
        </mxCell>
        <mxCell id="Ki-iK-O01lwPalJUnk5m-51" value="" style="shape=trapezoid;perimeter=trapezoidPerimeter;whiteSpace=wrap;html=1;fixedSize=1;direction=south;" parent="Ki-iK-O01lwPalJUnk5m-50" vertex="1">
          <mxGeometry width="20" height="100" as="geometry" />
        </mxCell>
        <mxCell id="Ki-iK-O01lwPalJUnk5m-53" value="0" style="text;html=1;align=center;verticalAlign=middle;whiteSpace=wrap;rounded=0;" parent="Ki-iK-O01lwPalJUnk5m-50" vertex="1">
          <mxGeometry x="5" y="10" width="10" height="28.57142857142857" as="geometry" />
        </mxCell>
        <mxCell id="Ki-iK-O01lwPalJUnk5m-52" value="1" style="text;html=1;align=center;verticalAlign=middle;whiteSpace=wrap;rounded=0;" parent="Ki-iK-O01lwPalJUnk5m-50" vertex="1">
          <mxGeometry y="60.00142857142862" width="20" height="14.285714285714285" as="geometry" />
        </mxCell>
        <mxCell id="Ki-iK-O01lwPalJUnk5m-54" value="" style="ellipse;whiteSpace=wrap;html=1;aspect=fixed;" parent="Ki-iK-O01lwPalJUnk5m-49" vertex="1">
          <mxGeometry y="60" width="10" height="10" as="geometry" />
        </mxCell>
        <mxCell id="Ki-iK-O01lwPalJUnk5m-55" value="" style="endArrow=classic;html=1;rounded=0;" parent="1" edge="1">
          <mxGeometry width="50" height="50" relative="1" as="geometry">
            <mxPoint x="400" y="150" as="sourcePoint" />
            <mxPoint x="420" y="260" as="targetPoint" />
            <Array as="points">
              <mxPoint x="400" y="260" />
            </Array>
          </mxGeometry>
        </mxCell>
        <mxCell id="Ki-iK-O01lwPalJUnk5m-56" value="" style="endArrow=classic;html=1;rounded=0;exitX=0.325;exitY=-0.017;exitDx=0;exitDy=0;exitPerimeter=0;" parent="1" source="fUXaf3c8tL8dAXFwkJp--4" edge="1">
          <mxGeometry width="50" height="50" relative="1" as="geometry">
            <mxPoint x="500" y="360" as="sourcePoint" />
            <mxPoint x="530" y="320" as="targetPoint" />
            <Array as="points">
              <mxPoint x="530" y="360" />
            </Array>
          </mxGeometry>
        </mxCell>
        <mxCell id="bs1XhUfaUdJF7QMj1rCU-5" value="parity" style="edgeLabel;html=1;align=center;verticalAlign=middle;resizable=0;points=[];" vertex="1" connectable="0" parent="Ki-iK-O01lwPalJUnk5m-56">
          <mxGeometry x="-0.6992" relative="1" as="geometry">
            <mxPoint x="-12" y="-9" as="offset" />
          </mxGeometry>
        </mxCell>
        <mxCell id="Ki-iK-O01lwPalJUnk5m-57" value="" style="ellipse;whiteSpace=wrap;html=1;container=0;" parent="1" vertex="1">
          <mxGeometry x="560" y="265" width="16" height="30" as="geometry" />
        </mxCell>
        <mxCell id="Ki-iK-O01lwPalJUnk5m-60" value="" style="edgeStyle=orthogonalEdgeStyle;rounded=0;orthogonalLoop=1;jettySize=auto;html=1;entryX=0.108;entryY=0.983;entryDx=0;entryDy=0;entryPerimeter=0;" parent="1" source="Ki-iK-O01lwPalJUnk5m-58" target="Ki-iK-O01lwPalJUnk5m-1" edge="1">
          <mxGeometry relative="1" as="geometry">
            <Array as="points">
              <mxPoint x="590" y="280" />
              <mxPoint x="590" y="313" />
            </Array>
          </mxGeometry>
        </mxCell>
        <mxCell id="Ki-iK-O01lwPalJUnk5m-58" value="=" style="text;html=1;align=center;verticalAlign=middle;whiteSpace=wrap;rounded=0;container=0;" parent="1" vertex="1">
          <mxGeometry x="558" y="270" width="20" height="20" as="geometry" />
        </mxCell>
        <mxCell id="Ki-iK-O01lwPalJUnk5m-59" value="" style="endArrow=classic;html=1;rounded=0;" parent="1" edge="1">
          <mxGeometry width="50" height="50" relative="1" as="geometry">
            <mxPoint x="540" y="280" as="sourcePoint" />
            <mxPoint x="560" y="280" as="targetPoint" />
          </mxGeometry>
        </mxCell>
        <mxCell id="Ki-iK-O01lwPalJUnk5m-63" value="" style="endArrow=classic;html=1;rounded=0;entryX=0.5;entryY=1;entryDx=0;entryDy=0;" parent="1" target="Ki-iK-O01lwPalJUnk5m-57" edge="1">
          <mxGeometry width="50" height="50" relative="1" as="geometry">
            <mxPoint x="530" y="360" as="sourcePoint" />
            <mxPoint x="550" y="310" as="targetPoint" />
            <Array as="points">
              <mxPoint x="570" y="360" />
            </Array>
          </mxGeometry>
        </mxCell>
        <mxCell id="Ki-iK-O01lwPalJUnk5m-64" value="" style="endArrow=none;html=1;rounded=0;" parent="1" edge="1">
          <mxGeometry width="50" height="50" relative="1" as="geometry">
            <mxPoint x="567" y="285" as="sourcePoint" />
            <mxPoint x="569" y="275" as="targetPoint" />
          </mxGeometry>
        </mxCell>
        <mxCell id="Ki-iK-O01lwPalJUnk5m-71" value="" style="endArrow=classic;html=1;rounded=0;strokeColor=light-dark(#0fc3ff, #ededed);strokeWidth=3;" parent="1" edge="1">
          <mxGeometry width="50" height="50" relative="1" as="geometry">
            <mxPoint x="600" y="760" as="sourcePoint" />
            <mxPoint x="600" y="690" as="targetPoint" />
          </mxGeometry>
        </mxCell>
        <mxCell id="Ki-iK-O01lwPalJUnk5m-74" value="data_reg_enable" style="text;html=1;align=center;verticalAlign=middle;whiteSpace=wrap;rounded=0;rotation=90;" parent="1" vertex="1">
          <mxGeometry x="510" y="698" width="60" height="30" as="geometry" />
        </mxCell>
        <mxCell id="Ki-iK-O01lwPalJUnk5m-75" value="" style="endArrow=classic;html=1;rounded=0;strokeColor=light-dark(#06f92f, #ededed);strokeWidth=3;" parent="1" edge="1">
          <mxGeometry width="50" height="50" relative="1" as="geometry">
            <mxPoint x="520" y="760" as="sourcePoint" />
            <mxPoint x="520" y="690" as="targetPoint" />
          </mxGeometry>
        </mxCell>
        <mxCell id="Ki-iK-O01lwPalJUnk5m-76" value="" style="endArrow=classic;html=1;rounded=0;strokeColor=light-dark(#0fc3ff, #ededed);strokeWidth=3;entryX=0.75;entryY=1;entryDx=0;entryDy=0;" parent="1" target="Ki-iK-O01lwPalJUnk5m-1" edge="1">
          <mxGeometry width="50" height="50" relative="1" as="geometry">
            <mxPoint x="520" y="440" as="sourcePoint" />
            <mxPoint x="480" y="630" as="targetPoint" />
            <Array as="points">
              <mxPoint x="520" y="390" />
            </Array>
          </mxGeometry>
        </mxCell>
        <mxCell id="Ki-iK-O01lwPalJUnk5m-77" value="stop bit error" style="text;html=1;align=center;verticalAlign=middle;whiteSpace=wrap;rounded=0;" parent="1" vertex="1">
          <mxGeometry x="540" y="365" width="70" height="30" as="geometry" />
        </mxCell>
        <mxCell id="Ki-iK-O01lwPalJUnk5m-78" value="stop bit error" style="text;html=1;align=center;verticalAlign=middle;whiteSpace=wrap;rounded=0;rotation=90;" parent="1" vertex="1">
          <mxGeometry x="580" y="710" width="70" height="30" as="geometry" />
        </mxCell>
        <mxCell id="Ki-iK-O01lwPalJUnk5m-79" value="" style="endArrow=classic;html=1;rounded=0;strokeColor=light-dark(#FFF847,#EDEDED);strokeWidth=3;exitX=0.583;exitY=-0.05;exitDx=0;exitDy=0;exitPerimeter=0;" parent="1" edge="1">
          <mxGeometry width="50" height="50" relative="1" as="geometry">
            <mxPoint x="760" y="535" as="sourcePoint" />
            <mxPoint x="827" y="605" as="targetPoint" />
            <Array as="points">
              <mxPoint x="827" y="535" />
            </Array>
          </mxGeometry>
        </mxCell>
        <mxCell id="Ki-iK-O01lwPalJUnk5m-80" value="" style="endArrow=classic;html=1;rounded=0;strokeColor=light-dark(#FFF847,#EDEDED);strokeWidth=3;" parent="1" edge="1">
          <mxGeometry width="50" height="50" relative="1" as="geometry">
            <mxPoint x="817" y="690" as="sourcePoint" />
            <mxPoint x="817" y="760" as="targetPoint" />
            <Array as="points">
              <mxPoint x="817" y="690" />
            </Array>
          </mxGeometry>
        </mxCell>
        <mxCell id="Ki-iK-O01lwPalJUnk5m-81" value="bit_count" style="text;html=1;align=center;verticalAlign=middle;resizable=0;points=[];autosize=1;strokeColor=none;fillColor=none;" parent="1" vertex="1">
          <mxGeometry x="760" y="510" width="70" height="30" as="geometry" />
        </mxCell>
        <mxCell id="Ki-iK-O01lwPalJUnk5m-82" value="bit_count" style="text;html=1;align=center;verticalAlign=middle;resizable=0;points=[];autosize=1;strokeColor=none;fillColor=none;rotation=90;" parent="1" vertex="1">
          <mxGeometry x="800" y="698" width="70" height="30" as="geometry" />
        </mxCell>
        <mxCell id="Ki-iK-O01lwPalJUnk5m-83" value="" style="endArrow=classic;html=1;rounded=0;strokeColor=light-dark(#B7A4B4,#EDEDED);strokeWidth=3;" parent="1" edge="1">
          <mxGeometry width="50" height="50" relative="1" as="geometry">
            <mxPoint x="660" y="760" as="sourcePoint" />
            <mxPoint x="660" y="690" as="targetPoint" />
          </mxGeometry>
        </mxCell>
        <mxCell id="Ki-iK-O01lwPalJUnk5m-85" value="" style="endArrow=classic;html=1;rounded=0;strokeColor=light-dark(#B7A4B4,#EDEDED);strokeWidth=3;entryX=0.75;entryY=1;entryDx=0;entryDy=0;" parent="1" target="fUXaf3c8tL8dAXFwkJp--46" edge="1">
          <mxGeometry width="50" height="50" relative="1" as="geometry">
            <mxPoint x="560" y="608" as="sourcePoint" />
            <mxPoint x="610" y="585" as="targetPoint" />
          </mxGeometry>
        </mxCell>
        <mxCell id="Ki-iK-O01lwPalJUnk5m-90" value="bit_count_enable" style="text;html=1;align=center;verticalAlign=middle;whiteSpace=wrap;rounded=0;" parent="1" vertex="1">
          <mxGeometry x="576" y="580" width="60" height="30" as="geometry" />
        </mxCell>
        <mxCell id="Ki-iK-O01lwPalJUnk5m-91" value="bit_count_enable" style="text;html=1;align=center;verticalAlign=middle;whiteSpace=wrap;rounded=0;rotation=90;" parent="1" vertex="1">
          <mxGeometry x="650" y="698" width="60" height="30" as="geometry" />
        </mxCell>
        <mxCell id="Ki-iK-O01lwPalJUnk5m-92" value="" style="endArrow=classic;html=1;rounded=0;strokeColor=light-dark(#316d3d, #ededed);strokeWidth=3;" parent="1" edge="1">
          <mxGeometry width="50" height="50" relative="1" as="geometry">
            <mxPoint x="269.5" y="760" as="sourcePoint" />
            <mxPoint x="269.5" y="690" as="targetPoint" />
          </mxGeometry>
        </mxCell>
        <mxCell id="Ki-iK-O01lwPalJUnk5m-95" value="baud_rate enable" style="text;html=1;align=center;verticalAlign=middle;whiteSpace=wrap;rounded=0;" parent="1" vertex="1">
          <mxGeometry x="230" y="600" width="110" height="30" as="geometry" />
        </mxCell>
        <mxCell id="Ki-iK-O01lwPalJUnk5m-96" value="baud_rate enable" style="text;html=1;align=center;verticalAlign=middle;whiteSpace=wrap;rounded=0;rotation=90;" parent="1" vertex="1">
          <mxGeometry x="230" y="690" width="110" height="30" as="geometry" />
        </mxCell>
        <mxCell id="Ki-iK-O01lwPalJUnk5m-103" value="" style="endArrow=classic;html=1;rounded=0;strokeColor=light-dark(#983434, #ededed);strokeWidth=3;entryX=0.295;entryY=-0.017;entryDx=0;entryDy=0;entryPerimeter=0;" parent="1" target="fUXaf3c8tL8dAXFwkJp--25" edge="1">
          <mxGeometry width="50" height="50" relative="1" as="geometry">
            <mxPoint x="364" y="680" as="sourcePoint" />
            <mxPoint x="385" y="740" as="targetPoint" />
          </mxGeometry>
        </mxCell>
        <mxCell id="Ki-iK-O01lwPalJUnk5m-104" value="fifo_enable" style="text;html=1;align=center;verticalAlign=middle;whiteSpace=wrap;rounded=0;rotation=90;" parent="1" vertex="1">
          <mxGeometry x="350" y="698" width="60" height="30" as="geometry" />
        </mxCell>
        <mxCell id="bs1XhUfaUdJF7QMj1rCU-1" value="" style="endArrow=classic;html=1;rounded=0;exitX=0.15;exitY=0.017;exitDx=0;exitDy=0;exitPerimeter=0;strokeColor=light-dark(#000000,#053100);strokeWidth=3;" edge="1" parent="1" source="fUXaf3c8tL8dAXFwkJp--4">
          <mxGeometry width="50" height="50" relative="1" as="geometry">
            <mxPoint x="400" y="530" as="sourcePoint" />
            <mxPoint x="350" y="400" as="targetPoint" />
            <Array as="points">
              <mxPoint x="350" y="338" />
            </Array>
          </mxGeometry>
        </mxCell>
        <mxCell id="bs1XhUfaUdJF7QMj1rCU-2" value="stop_bit" style="edgeLabel;html=1;align=center;verticalAlign=middle;resizable=0;points=[];" vertex="1" connectable="0" parent="bs1XhUfaUdJF7QMj1rCU-1">
          <mxGeometry x="-0.661" relative="1" as="geometry">
            <mxPoint x="20" y="-8" as="offset" />
          </mxGeometry>
        </mxCell>
        <mxCell id="bs1XhUfaUdJF7QMj1rCU-3" value="" style="endArrow=classic;html=1;rounded=0;strokeColor=light-dark(#000000,#053100);strokeWidth=3;" edge="1" parent="1">
          <mxGeometry width="50" height="50" relative="1" as="geometry">
            <mxPoint x="321" y="698" as="sourcePoint" />
            <mxPoint x="320.5" y="760" as="targetPoint" />
            <Array as="points">
              <mxPoint x="320.5" y="698" />
            </Array>
          </mxGeometry>
        </mxCell>
        <mxCell id="bs1XhUfaUdJF7QMj1rCU-4" value="stop_bit" style="edgeLabel;html=1;align=center;verticalAlign=middle;resizable=0;points=[];rotation=90;" vertex="1" connectable="0" parent="bs1XhUfaUdJF7QMj1rCU-3">
          <mxGeometry x="-0.661" relative="1" as="geometry">
            <mxPoint x="10" y="12" as="offset" />
          </mxGeometry>
        </mxCell>
        <mxCell id="XD9MO1sM5KXUhL5Tx8Wz-1" value="" style="endArrow=classic;html=1;rounded=0;entryX=0;entryY=0.5;entryDx=0;entryDy=0;" edge="1" parent="1" target="fUXaf3c8tL8dAXFwkJp--25">
          <mxGeometry width="50" height="50" relative="1" as="geometry">
            <mxPoint y="790" as="sourcePoint" />
            <mxPoint x="60" y="790" as="targetPoint" />
          </mxGeometry>
        </mxCell>
        <mxCell id="XD9MO1sM5KXUhL5Tx8Wz-2" value="rx" style="edgeLabel;html=1;align=center;verticalAlign=middle;resizable=0;points=[];" vertex="1" connectable="0" parent="XD9MO1sM5KXUhL5Tx8Wz-1">
          <mxGeometry x="-0.0667" y="-2" relative="1" as="geometry">
            <mxPoint y="-12" as="offset" />
          </mxGeometry>
        </mxCell>
        <mxCell id="vYeH1huUzE66C1ftF_dd-1" value="" style="endArrow=classic;html=1;rounded=0;entryX=0.375;entryY=1.033;entryDx=0;entryDy=0;entryPerimeter=0;strokeColor=light-dark(#b3a55b, #ededed);strokeWidth=3;" edge="1" parent="1" target="Ki-iK-O01lwPalJUnk5m-1">
          <mxGeometry width="50" height="50" relative="1" as="geometry">
            <mxPoint x="580" y="360" as="sourcePoint" />
            <mxPoint x="450" y="560" as="targetPoint" />
            <Array as="points">
              <mxPoint x="580" y="345" />
            </Array>
          </mxGeometry>
        </mxCell>
        <mxCell id="vYeH1huUzE66C1ftF_dd-2" value="uart_status_enable" style="edgeLabel;html=1;align=center;verticalAlign=middle;resizable=0;points=[];" vertex="1" connectable="0" parent="vYeH1huUzE66C1ftF_dd-1">
          <mxGeometry x="0.0682" relative="1" as="geometry">
            <mxPoint x="11" y="-15" as="offset" />
          </mxGeometry>
        </mxCell>
        <mxCell id="t4w6jLZN6vHstFKh3NNS-1" value="" style="endArrow=classic;html=1;rounded=0;exitX=0.679;exitY=-0.05;exitDx=0;exitDy=0;exitPerimeter=0;strokeColor=light-dark(#b2b856, #ededed);strokeWidth=3;" edge="1" parent="1" source="fUXaf3c8tL8dAXFwkJp--25">
          <mxGeometry width="50" height="50" relative="1" as="geometry">
            <mxPoint x="400" y="540" as="sourcePoint" />
            <mxPoint x="760" y="680" as="targetPoint" />
          </mxGeometry>
        </mxCell>
        <mxCell id="t4w6jLZN6vHstFKh3NNS-2" value="uart_status_enable" style="edgeLabel;html=1;align=center;verticalAlign=middle;resizable=0;points=[];rotation=90;" vertex="1" connectable="0" parent="t4w6jLZN6vHstFKh3NNS-1">
          <mxGeometry x="-0.1694" y="3" relative="1" as="geometry">
            <mxPoint x="-13" y="-12" as="offset" />
          </mxGeometry>
        </mxCell>
      </root>
    </mxGraphModel>
  </diagram>
  <diagram id="hqcacZaWT376cXRWCEjd" name="controller">
    <mxGraphModel dx="864" dy="516" grid="1" gridSize="10" guides="1" tooltips="1" connect="1" arrows="1" fold="1" page="1" pageScale="1" pageWidth="850" pageHeight="1100" math="0" shadow="0">
      <root>
        <mxCell id="0" />
        <mxCell id="1" parent="0" />
        <mxCell id="TDjhoYfTvpKM7bdY4tR2-1" value="ideal" style="ellipse;whiteSpace=wrap;html=1;" parent="1" vertex="1">
          <mxGeometry x="360" y="190" width="120" height="80" as="geometry" />
        </mxCell>
        <mxCell id="TDjhoYfTvpKM7bdY4tR2-3" value="" style="endArrow=classic;html=1;rounded=0;exitX=1;exitY=0.5;exitDx=0;exitDy=0;curved=1;" parent="1" source="TDjhoYfTvpKM7bdY4tR2-1" target="TDjhoYfTvpKM7bdY4tR2-4" edge="1">
          <mxGeometry width="50" height="50" relative="1" as="geometry">
            <mxPoint x="400" y="290" as="sourcePoint" />
            <mxPoint x="640" y="430" as="targetPoint" />
            <Array as="points">
              <mxPoint x="620" y="250" />
            </Array>
          </mxGeometry>
        </mxCell>
        <mxCell id="3tDUxpG8ckmac0o2Y2p0-2" value="!data_in, rx&lt;br&gt;--------------&lt;br&gt;fifo_enable&lt;br&gt;baud_rate_enable&lt;br&gt;bit_count_enable" style="edgeLabel;html=1;align=center;verticalAlign=middle;resizable=0;points=[];" parent="TDjhoYfTvpKM7bdY4tR2-3" vertex="1" connectable="0">
          <mxGeometry x="-0.5318" y="-12" relative="1" as="geometry">
            <mxPoint x="36" y="-53" as="offset" />
          </mxGeometry>
        </mxCell>
        <mxCell id="TDjhoYfTvpKM7bdY4tR2-4" value="start_receiving" style="ellipse;whiteSpace=wrap;html=1;" parent="1" vertex="1">
          <mxGeometry x="660" y="410" width="120" height="80" as="geometry" />
        </mxCell>
        <mxCell id="TDjhoYfTvpKM7bdY4tR2-5" value="" style="endArrow=classic;html=1;rounded=0;exitX=0.608;exitY=1;exitDx=0;exitDy=0;exitPerimeter=0;curved=1;" parent="1" source="TDjhoYfTvpKM7bdY4tR2-4" target="TDjhoYfTvpKM7bdY4tR2-6" edge="1">
          <mxGeometry width="50" height="50" relative="1" as="geometry">
            <mxPoint x="680" y="540" as="sourcePoint" />
            <mxPoint x="480" y="592" as="targetPoint" />
            <Array as="points">
              <mxPoint x="710" y="570" />
            </Array>
          </mxGeometry>
        </mxCell>
        <mxCell id="Q-sU_MXYlLJM6P04SO7g-1" value="parity &amp;amp; bit_count &amp;amp; baud_rate&lt;br&gt;______________&lt;div&gt;baud_rate_enable&lt;br&gt;uart_status_enable&lt;/div&gt;" style="edgeLabel;html=1;align=center;verticalAlign=middle;resizable=0;points=[];" parent="TDjhoYfTvpKM7bdY4tR2-5" vertex="1" connectable="0">
          <mxGeometry x="-0.0969" y="-14" relative="1" as="geometry">
            <mxPoint x="68" y="34" as="offset" />
          </mxGeometry>
        </mxCell>
        <mxCell id="TDjhoYfTvpKM7bdY4tR2-6" value="parity_check" style="ellipse;whiteSpace=wrap;html=1;" parent="1" vertex="1">
          <mxGeometry x="450" y="650" width="120" height="80" as="geometry" />
        </mxCell>
        <mxCell id="TDjhoYfTvpKM7bdY4tR2-8" value="" style="endArrow=classic;html=1;rounded=0;exitX=0;exitY=0.35;exitDx=0;exitDy=0;exitPerimeter=0;curved=1;" parent="1" source="TDjhoYfTvpKM7bdY4tR2-6" target="TDjhoYfTvpKM7bdY4tR2-9" edge="1">
          <mxGeometry width="50" height="50" relative="1" as="geometry">
            <mxPoint x="400" y="500" as="sourcePoint" />
            <mxPoint x="260" y="520" as="targetPoint" />
            <Array as="points">
              <mxPoint x="240" y="690" />
            </Array>
          </mxGeometry>
        </mxCell>
        <mxCell id="8ZJGCf3k3bRbTv9vqLE5-4" value="&amp;nbsp;stop_bit &amp;amp; baud_rate&lt;br&gt;_____________&lt;div&gt;baud_rate_enable&lt;br&gt;uart_status_enable&lt;/div&gt;" style="edgeLabel;html=1;align=center;verticalAlign=middle;resizable=0;points=[];" vertex="1" connectable="0" parent="TDjhoYfTvpKM7bdY4tR2-8">
          <mxGeometry x="-0.342" y="-16" relative="1" as="geometry">
            <mxPoint x="-36" y="41" as="offset" />
          </mxGeometry>
        </mxCell>
        <mxCell id="TDjhoYfTvpKM7bdY4tR2-9" value="stop_bit_check" style="ellipse;whiteSpace=wrap;html=1;" parent="1" vertex="1">
          <mxGeometry x="100" y="460" width="120" height="80" as="geometry" />
        </mxCell>
        <mxCell id="TDjhoYfTvpKM7bdY4tR2-10" value="" style="endArrow=classic;html=1;rounded=0;exitX=0.5;exitY=0;exitDx=0;exitDy=0;entryX=0.05;entryY=0.763;entryDx=0;entryDy=0;entryPerimeter=0;curved=1;" parent="1" source="TDjhoYfTvpKM7bdY4tR2-9" target="TDjhoYfTvpKM7bdY4tR2-1" edge="1">
          <mxGeometry width="50" height="50" relative="1" as="geometry">
            <mxPoint x="400" y="500" as="sourcePoint" />
            <mxPoint x="450" y="450" as="targetPoint" />
            <Array as="points">
              <mxPoint x="170" y="250" />
            </Array>
          </mxGeometry>
        </mxCell>
        <mxCell id="lfHv0EKd41IPh476q-86-1" value="&amp;nbsp;baud_rate&lt;br&gt;______________&lt;div&gt;uart_status_enable&lt;/div&gt;&lt;div&gt;data_register_enable&amp;amp; (!&amp;nbsp;&lt;span style=&quot;background-color: light-dark(#ffffff, var(--ge-dark-color, #121212)); color: light-dark(rgb(0, 0, 0), rgb(255, 255, 255));&quot;&gt;stop_bit_error)&lt;/span&gt;&lt;/div&gt;" style="edgeLabel;html=1;align=center;verticalAlign=middle;resizable=0;points=[];" vertex="1" connectable="0" parent="TDjhoYfTvpKM7bdY4tR2-10">
          <mxGeometry x="-0.3069" y="-34" relative="1" as="geometry">
            <mxPoint x="-91" y="-31" as="offset" />
          </mxGeometry>
        </mxCell>
        <mxCell id="TDjhoYfTvpKM7bdY4tR2-11" value="" style="endArrow=classic;html=1;rounded=0;exitX=0;exitY=0.5;exitDx=0;exitDy=0;entryX=1;entryY=0.5;entryDx=0;entryDy=0;curved=1;" parent="1" source="TDjhoYfTvpKM7bdY4tR2-4" target="TDjhoYfTvpKM7bdY4tR2-9" edge="1">
          <mxGeometry width="50" height="50" relative="1" as="geometry">
            <mxPoint x="400" y="500" as="sourcePoint" />
            <mxPoint x="450" y="450" as="targetPoint" />
            <Array as="points">
              <mxPoint x="440" y="550" />
            </Array>
          </mxGeometry>
        </mxCell>
        <mxCell id="8ZJGCf3k3bRbTv9vqLE5-3" value="stop_bit&amp;nbsp;&lt;br&gt;bit_count &amp;amp; baud_rate&lt;br&gt;______________&lt;div&gt;baud_rate_enable&lt;br&gt;uart_status_enable&lt;/div&gt;" style="edgeLabel;html=1;align=center;verticalAlign=middle;resizable=0;points=[];" vertex="1" connectable="0" parent="TDjhoYfTvpKM7bdY4tR2-11">
          <mxGeometry x="0.406" y="-12" relative="1" as="geometry">
            <mxPoint x="-58" y="41" as="offset" />
          </mxGeometry>
        </mxCell>
        <mxCell id="TDjhoYfTvpKM7bdY4tR2-12" value="" style="endArrow=classic;html=1;rounded=0;exitX=0.275;exitY=0.05;exitDx=0;exitDy=0;exitPerimeter=0;curved=1;entryX=1;entryY=0;entryDx=0;entryDy=0;" parent="1" source="TDjhoYfTvpKM7bdY4tR2-1" target="TDjhoYfTvpKM7bdY4tR2-1" edge="1">
          <mxGeometry width="50" height="50" relative="1" as="geometry">
            <mxPoint x="400" y="300" as="sourcePoint" />
            <mxPoint x="500" y="150" as="targetPoint" />
            <Array as="points">
              <mxPoint x="420" y="110" />
            </Array>
          </mxGeometry>
        </mxCell>
        <mxCell id="3tDUxpG8ckmac0o2Y2p0-1" value="data_in" style="edgeLabel;html=1;align=center;verticalAlign=middle;resizable=0;points=[];" parent="TDjhoYfTvpKM7bdY4tR2-12" vertex="1" connectable="0">
          <mxGeometry x="-0.5703" y="-12" relative="1" as="geometry">
            <mxPoint x="8" y="-19" as="offset" />
          </mxGeometry>
        </mxCell>
        <mxCell id="68qObynU67evpY9ArR0Z-1" value="" style="endArrow=classic;html=1;rounded=0;exitX=0.2;exitY=0.075;exitDx=0;exitDy=0;exitPerimeter=0;entryX=0.425;entryY=1.038;entryDx=0;entryDy=0;entryPerimeter=0;curved=1;" edge="1" parent="1" source="TDjhoYfTvpKM7bdY4tR2-6" target="TDjhoYfTvpKM7bdY4tR2-1">
          <mxGeometry width="50" height="50" relative="1" as="geometry">
            <mxPoint x="400" y="540" as="sourcePoint" />
            <mxPoint x="450" y="490" as="targetPoint" />
            <Array as="points">
              <mxPoint x="310" y="490" />
            </Array>
          </mxGeometry>
        </mxCell>
        <mxCell id="68qObynU67evpY9ArR0Z-2" value="&amp;nbsp;baud_rate&lt;br&gt;______________&lt;div&gt;uart_status_enable&lt;/div&gt;&lt;div&gt;data_register_enable&amp;amp;(!&lt;span style=&quot;color: light-dark(rgb(0, 0, 0), rgb(255, 255, 255));&quot;&gt;stop_bit_error)&lt;/span&gt;&lt;/div&gt;" style="edgeLabel;html=1;align=center;verticalAlign=middle;resizable=0;points=[];labelBackgroundColor=none;" vertex="1" connectable="0" parent="1">
          <mxGeometry x="269.9975292172346" y="390.00318288545344" as="geometry">
            <mxPoint x="3" y="-24" as="offset" />
          </mxGeometry>
        </mxCell>
        <mxCell id="lfHv0EKd41IPh476q-86-2" value="" style="endArrow=classic;html=1;rounded=0;entryX=1;entryY=1;entryDx=0;entryDy=0;exitX=0.042;exitY=0.3;exitDx=0;exitDy=0;exitPerimeter=0;curved=1;" edge="1" parent="1" source="TDjhoYfTvpKM7bdY4tR2-4" target="TDjhoYfTvpKM7bdY4tR2-1">
          <mxGeometry width="50" height="50" relative="1" as="geometry">
            <mxPoint x="400" y="440" as="sourcePoint" />
            <mxPoint x="450" y="390" as="targetPoint" />
            <Array as="points">
              <mxPoint x="470" y="440" />
            </Array>
          </mxGeometry>
        </mxCell>
        <mxCell id="lfHv0EKd41IPh476q-86-3" value="&amp;nbsp;baud_rate&lt;br&gt;______________&lt;br&gt;uart_status_enable&lt;br&gt;data_register_enable &amp;amp;(!stop_bit_error)" style="text;whiteSpace=wrap;align=center;html=1;" vertex="1" parent="1">
          <mxGeometry x="410" y="360" width="190" height="90" as="geometry" />
        </mxCell>
      </root>
    </mxGraphModel>
  </diagram>
</mxfile>
